<?xml version="1.0" standalone="no"?>
<!DOCTYPE svg PUBLIC "-//W3C//DTD SVG 20010904//EN"
 "http://www.w3.org/TR/2001/REC-SVG-20010904/DTD/svg10.dtd">
<svg version="1.0" xmlns="http://www.w3.org/2000/svg"
 width="500.000000pt" height="500.000000pt" viewBox="0 0 500.000000 500.000000"
 preserveAspectRatio="xMidYMid meet">
<metadata>
Created by potrace 1.14, written by Peter Selinger 2001-2017
</metadata>
<g transform="translate(0.000000,500.000000) scale(0.100000,-0.100000)"
fill="#000000" stroke="none">
<path d="M2345 4443 c-461 -60 -872 -349 -1079 -760 -50 -100 -94 -233 -122
-363 l-24 -115 0 -752 c0 -466 -4 -754 -10 -758 -5 -3 -31 -7 -57 -9 -34 -2
-63 -13 -96 -35 -55 -38 -67 -57 -67 -106 0 -19 -11 -58 -25 -86 -28 -55 -26
-83 7 -110 27 -21 35 -103 18 -173 -11 -46 -10 -57 4 -84 9 -18 21 -32 26 -32
5 0 29 -20 52 -45 49 -52 78 -57 149 -26 24 11 94 32 155 47 l111 28 103 -97
c222 -209 460 -332 759 -393 115 -24 141 -25 306 -21 259 7 389 38 610 147
154 76 267 155 401 283 l86 81 101 -23 c56 -13 127 -32 157 -43 30 -11 72 -22
93 -25 33 -5 41 -1 72 31 18 20 38 36 43 36 6 0 22 14 36 30 25 30 25 33 19
140 -6 106 -6 109 19 132 39 36 42 60 15 115 -13 26 -27 68 -30 91 -3 26 -15
54 -28 68 -34 36 -108 77 -130 71 -11 -3 -35 -1 -54 4 l-34 10 -4 767 c-3 753
-4 769 -26 867 -63 279 -183 497 -386 700 -276 277 -617 418 -1003 414 -76 -1
-150 -4 -167 -6z m442 -133 c142 -32 275 -81 358 -133 160 -99 201 -130 296
-226 143 -144 244 -301 298 -465 l18 -56 -129 0 c-99 0 -129 -3 -126 -12 3 -9
42 -14 136 -16 l131 -3 10 -37 c12 -46 41 -211 41 -234 0 -11 -5 -15 -14 -12
-8 3 -17 1 -21 -5 -3 -7 2 -11 14 -11 21 0 21 -3 21 -395 l0 -395 -100 0 c-55
0 -100 -4 -100 -9 0 -14 39 -21 123 -21 l77 0 0 -271 0 -270 -22 3 c-17 2 -24
12 -29 38 -3 19 -9 45 -13 57 -6 18 -4 22 8 17 10 -4 18 1 22 10 9 24 -4 32
-26 18 -18 -11 -23 -7 -51 55 -57 123 -84 174 -101 190 -16 15 -18 43 -18 318
0 261 -2 304 -15 315 -9 7 -14 19 -11 25 2 7 0 18 -4 26 -6 8 -3 20 6 30 23
25 14 71 -16 86 -30 15 -276 18 -314 3 -14 -5 -30 -19 -36 -31 -10 -18 -8 -26
9 -50 12 -16 17 -30 11 -34 -6 -3 -10 -16 -10 -29 0 -12 -6 -28 -12 -34 -9 -9
-15 -58 -18 -141 l-5 -127 -34 8 c-31 9 -33 11 -28 43 3 18 2 72 -2 119 -7 70
-13 94 -37 128 -33 50 -32 62 7 147 38 82 41 169 7 203 -16 16 -29 55 -49 148
-15 69 -36 150 -47 180 l-21 55 27 7 c40 11 100 65 118 106 24 53 21 145 -7
217 -18 50 -40 77 -128 166 -58 58 -118 114 -132 123 -30 19 -115 46 -146 46
-11 0 -45 11 -75 25 -76 36 -138 33 -326 -15 -222 -57 -283 -91 -312 -177 -7
-19 -28 -37 -66 -58 -120 -64 -190 -202 -151 -296 12 -29 12 -39 2 -53 -20
-27 -27 -82 -15 -126 8 -30 22 -48 50 -68 24 -16 39 -35 40 -48 0 -31 21 -53
65 -68 38 -14 40 -16 52 -78 29 -149 34 -167 52 -173 10 -3 24 -16 31 -30 11
-21 10 -31 -9 -74 -11 -27 -21 -70 -21 -95 0 -43 -11 -59 -25 -36 -11 17 -34
11 -50 -14 -21 -32 -22 -119 -1 -151 8 -13 29 -31 45 -41 28 -17 29 -19 16
-44 -9 -17 -14 -62 -14 -131 l0 -104 -33 -25 c-18 -14 -50 -41 -71 -62 -37
-35 -39 -36 -56 -19 -23 23 -44 198 -24 205 19 7 16 81 -3 100 -20 20 -148 23
-161 4 -4 -7 -8 -74 -8 -148 0 -135 -1 -135 -30 -173 l-30 -37 -19 80 c-17 75
-17 82 -2 99 20 22 21 90 2 117 -12 16 -29 20 -99 22 -107 5 -123 -3 -130 -65
-3 -26 -1 -56 4 -66 11 -19 -9 -129 -36 -206 -11 -33 -15 -87 -15 -226 l0
-183 -25 -4 -25 -5 0 493 0 494 192 2 c142 2 192 6 196 16 3 9 -40 12 -193 12
l-197 0 5 248 c2 155 8 261 16 285 11 35 14 37 56 37 25 0 45 5 45 10 0 6 -20
10 -45 10 -44 0 -45 1 -39 28 24 93 103 278 148 345 15 21 26 40 26 43 0 9
112 147 165 202 43 46 163 145 216 177 129 80 390 182 431 169 11 -3 23 -1 27
4 9 16 111 28 111 13 0 -7 30 -11 90 -11 82 0 110 9 78 24 -27 13 146 -6 229
-24z m-156 -171 c85 -53 112 -147 67 -236 -18 -35 -41 -57 -120 -109 -54 -36
-144 -109 -200 -162 -70 -67 -90 -82 -64 -49 22 26 52 57 68 68 16 12 53 51
83 89 35 44 74 79 109 100 65 36 92 68 106 121 22 82 -35 176 -122 200 -46 12
-50 21 -5 13 17 -4 52 -19 78 -35z m-134 1 c116 -31 143 -56 143 -134 0 -37
-6 -52 -31 -81 -18 -20 -45 -43 -60 -51 -44 -22 -98 -73 -143 -134 -23 -30
-77 -89 -121 -130 -44 -41 -71 -65 -61 -52 11 12 17 25 13 28 -3 3 9 18 26 34
18 16 29 31 26 35 -8 7 -217 -153 -282 -215 -46 -43 -75 -55 -37 -15 33 36 16
44 -20 10 -17 -16 -30 -25 -30 -19 0 15 54 91 80 112 14 11 22 23 18 27 -10
11 -52 -25 -92 -79 -20 -27 -36 -46 -36 -42 0 11 47 80 74 108 30 31 32 38 12
38 -8 0 -33 -21 -57 -47 -23 -27 -37 -38 -30 -26 6 12 16 25 21 28 6 3 10 13
10 22 0 14 -3 14 -21 -3 -17 -16 -22 -16 -29 -4 -8 12 -14 10 -35 -15 l-24
-30 -1 29 c0 36 25 69 129 171 45 44 77 81 71 83 -6 2 -20 -4 -31 -14 -11 -10
-20 -14 -19 -9 5 24 -2 24 -33 1 -40 -31 -57 -34 -33 -7 37 41 9 40 -33 -1
-32 -32 -40 -36 -31 -18 7 14 24 36 36 49 34 34 29 60 -5 29 -8 -7 -5 2 5 20
10 18 34 45 52 58 46 36 231 131 270 139 48 10 41 29 -9 21 -48 -8 -45 7 6 24
36 12 45 25 23 32 -16 6 146 45 187 47 17 0 62 -8 102 -19z m298 -39 c105 -49
134 -105 100 -189 -12 -28 -18 -33 -25 -22 -7 12 -12 10 -29 -11 -13 -17 -28
-25 -43 -23 -13 1 -27 3 -32 3 -6 1 -5 6 2 13 15 15 16 48 2 48 -6 0 -10 30
-10 69 0 56 -4 75 -25 105 -30 44 -19 45 60 7z m257 -251 c33 -66 38 -224 7
-205 -5 4 -15 2 -22 -3 -8 -7 -16 -6 -24 3 -10 11 -10 17 2 29 19 19 19 26 0
26 -8 0 -15 -4 -15 -10 0 -5 -7 -10 -15 -10 -18 0 -19 12 -4 27 8 8 6 17 -9
33 -21 22 -21 23 -1 59 25 46 26 69 3 50 -15 -12 -16 -11 -9 11 4 14 10 30 12
36 9 23 -16 24 -33 2 -12 -17 -15 -18 -10 -5 3 10 6 37 6 60 l0 42 45 -50 c25
-28 55 -70 67 -95z m-262 -148 c23 -11 35 -24 35 -37 0 -11 6 -20 13 -20 7 0
19 -13 27 -29 l15 -29 -22 17 c-41 29 -112 64 -156 75 -23 7 -42 16 -42 22 0
6 9 8 20 5 11 -3 29 -9 40 -12 25 -7 26 11 3 26 -15 9 -14 10 7 5 14 -4 41
-14 60 -23z m-177 -29 c-7 -2 -19 -2 -25 0 -7 3 -2 5 12 5 14 0 19 -2 13 -5z
m40 -49 c56 -14 108 -30 117 -35 13 -9 13 -10 0 -6 -66 20 -132 29 -141 20 -7
-7 6 -16 38 -27 93 -34 188 -77 213 -97 l25 -20 -45 20 c-109 48 -232 93 -237
87 -9 -9 -4 -12 68 -46 71 -33 47 -31 -74 6 -84 26 -107 29 -107 15 0 -5 24
-15 53 -21 28 -7 68 -19 87 -26 19 -7 54 -18 77 -24 29 -7 41 -15 37 -24 -4
-10 18 -25 70 -50 42 -19 76 -38 76 -41 0 -3 -9 -1 -19 5 -11 5 -27 10 -37 10
-13 0 -14 -3 -4 -15 7 -8 22 -15 34 -15 16 0 18 -2 7 -9 -11 -7 -10 -11 5 -20
36 -20 7 -11 -76 25 -54 24 -92 34 -109 31 -14 -3 -55 1 -91 8 -36 8 -111 14
-168 15 -113 0 -127 6 -127 55 -1 25 13 44 80 107 44 43 88 78 97 78 9 0 20 5
23 10 9 14 13 13 128 -16z m64 20 c-3 -3 -12 -4 -19 -1 -8 3 -5 6 6 6 11 1 17
-2 13 -5z m183 -104 c9 -17 7 -17 -21 -7 -16 7 -25 13 -19 15 5 2 8 8 5 13 -4
5 1 6 10 3 8 -4 20 -14 25 -24z m-620 -20 c0 -5 -5 -10 -11 -10 -5 0 -7 5 -4
10 3 6 8 10 11 10 2 0 4 -4 4 -10z m-105 -62 c-15 -18 -39 -39 -54 -47 -17 -9
-10 2 24 35 57 55 71 61 30 12z m-302 7 c-3 -9 -8 -14 -10 -11 -3 3 -2 9 2 15
9 16 15 13 8 -4z m370 -10 c-3 -9 -8 -14 -10 -11 -3 3 -2 9 2 15 9 16 15 13 8
-4z m258 -145 c52 -5 102 -12 111 -15 9 -4 23 -26 32 -49 9 -24 27 -49 41 -56
24 -13 34 -41 37 -100 1 -14 8 -33 17 -43 13 -16 13 -23 -2 -71 -9 -29 -17
-65 -17 -80 0 -23 -3 -26 -20 -21 -17 5 -21 1 -26 -24 -5 -24 -13 -31 -43 -39
-20 -5 -35 -13 -34 -19 2 -8 -8 -8 -32 -2 -20 6 -39 7 -44 4 -5 -3 -21 0 -35
6 -21 10 -24 15 -14 27 10 11 9 17 -5 27 -9 7 -17 18 -17 25 0 18 -30 50 -47
50 -17 0 -17 7 5 35 16 21 20 21 43 9 47 -26 149 -6 149 30 0 8 7 17 16 20 8
3 12 11 9 17 -4 6 2 17 14 25 24 17 26 36 9 67 -7 12 -13 28 -14 35 -8 46 -90
102 -148 102 -39 0 -106 -39 -106 -62 0 -17 2 -17 33 2 17 11 47 20 65 20 38
0 96 -22 107 -41 5 -8 5 -11 0 -7 -4 4 -14 3 -22 -3 -9 -9 -13 -8 -13 0 0 6
-12 11 -27 10 -16 -1 -39 1 -53 5 -19 5 -31 2 -44 -13 -17 -19 -20 -19 -49 -4
-28 14 -31 14 -44 -3 -17 -23 -16 -29 2 -48 14 -14 14 -21 -8 -74 -13 -32 -24
-83 -26 -114 l-2 -55 48 -1 c38 0 43 2 23 8 -21 7 -22 8 -5 9 25 1 45 -17 45
-38 0 -12 -2 -13 -8 -4 -4 7 -22 12 -39 10 -17 -1 -29 -5 -27 -9 7 -11 -52
-38 -84 -38 -52 0 -55 18 -17 106 19 43 35 90 35 104 0 33 -28 111 -46 130 -8
8 -23 27 -34 42 -12 15 -32 28 -48 30 -26 3 -26 4 15 26 23 12 53 22 66 22 12
0 29 6 35 12 10 10 64 21 132 26 8 1 58 -3 111 -8z m444 -28 c-3 -3 -11 0 -18
7 -9 10 -8 11 6 5 10 -3 15 -9 12 -12z m-103 -87 c16 -21 7 -25 -17 -9 -14 9
-23 19 -20 22 2 3 -1 12 -7 21 -8 10 -3 8 12 -4 14 -11 28 -24 32 -30z m-675
-22 c10 -10 14 -15 9 -10 -14 10 -46 9 -46 -3 0 -5 -7 -7 -15 -4 -8 4 -15 1
-15 -5 0 -6 -10 -11 -22 -11 -22 1 -22 1 5 25 33 29 58 32 84 8z m667 -23 c5
0 6 -3 3 -7 -4 -3 0 -15 10 -25 22 -24 2 -23 -30 2 -46 36 -53 14 -9 -29 22
-22 25 -30 15 -40 -10 -9 -13 -8 -13 7 0 10 -11 29 -25 42 -25 23 -34 60 -15
60 6 0 10 7 10 15 0 13 4 12 22 -5 12 -11 26 -20 32 -20z m7 -193 c4 -14 3
-27 -3 -29 -5 -2 -6 -11 -3 -21 4 -9 11 -15 15 -12 5 3 8 -3 7 -14 -1 -18 -3
-18 -28 -6 -15 8 -29 25 -33 39 -3 13 -9 31 -12 39 -4 12 0 14 17 10 18 -5 21
-3 16 11 -5 12 -3 16 5 14 7 -3 15 -16 19 -31z m-662 -42 c-15 -24 -20 -47
-17 -75 3 -32 0 -40 -17 -44 -37 -10 -47 -7 -40 14 5 16 2 20 -14 20 -17 0
-21 6 -21 30 0 16 5 41 12 55 10 22 17 26 42 21 17 -2 40 -1 51 4 11 5 21 9
22 9 1 1 -7 -15 -18 -34z m614 -70 c-7 -21 -13 -19 -13 6 0 11 4 18 10 14 5
-3 7 -12 3 -20z m560 -22 c-7 -2 -21 -2 -30 0 -10 3 -4 5 12 5 17 0 24 -2 18
-5z m-525 -82 c41 -53 23 -44 -23 12 -25 31 -45 59 -45 64 1 8 21 -15 68 -76z
m-320 -1 c49 -22 78 -40 70 -44 -10 -5 -10 -7 0 -12 17 -8 5 -24 -20 -24 -11
0 -41 22 -69 53 -32 34 -49 46 -49 35 0 -9 5 -20 10 -23 6 -3 10 -14 10 -23 0
-11 -7 -6 -19 14 -10 17 -33 36 -50 44 -17 7 -31 16 -31 21 0 15 63 -2 148
-41z m-320 11 c-7 -11 -15 -18 -20 -15 -4 3 -31 -11 -60 -31 -50 -33 -91 -44
-102 -27 -2 4 10 8 28 8 19 0 46 10 67 26 29 23 88 58 97 58 1 0 -3 -9 -10
-19z m150 -8 c0 -25 -1 -25 -14 -8 -13 18 -11 35 5 35 5 0 9 -12 9 -27z m37 7
c3 -6 -1 -7 -9 -4 -18 7 -21 14 -7 14 6 0 13 -4 16 -10z m968 3 c-7 -2 -21 -2
-30 0 -10 3 -4 5 12 5 17 0 24 -2 18 -5z m-545 -28 c-3 -3 -9 2 -12 12 -6 14
-5 15 5 6 7 -7 10 -15 7 -18z m37 -42 c17 -20 25 -23 26 -13 1 14 28 -83 29
-105 0 -5 -12 8 -26 28 -32 48 -42 41 -19 -15 l17 -43 -21 19 c-26 24 -26 11
-2 -54 11 -27 15 -50 10 -50 -5 0 -9 -24 -10 -52 l-1 -53 -13 40 c-8 22 -14
36 -15 30 0 -5 -8 4 -18 20 l-17 30 -5 -60 c-4 -45 -1 -63 9 -72 9 -8 10 -13
4 -13 -7 0 -15 5 -18 10 -4 6 -11 7 -17 4 -6 -4 -14 0 -19 7 -7 11 -11 10 -22
-5 -13 -18 -14 -18 -20 4 -8 31 -30 14 -24 -19 3 -14 2 -42 -3 -61 -8 -35 -8
-35 -9 12 -1 52 -15 98 -30 98 -6 0 -8 -26 -5 -67 4 -52 3 -64 -6 -50 -17 26
-26 21 -39 -25 -7 -24 -22 -51 -32 -61 -18 -17 -19 -17 -19 23 0 22 -4 40 -9
40 -14 0 -23 -52 -12 -63 6 -6 11 -16 11 -21 0 -21 -28 31 -32 57 -5 44 -23
27 -24 -23 -1 -41 -3 -45 -25 -45 -25 0 -27 11 -13 73 9 43 -29 22 -43 -23
-10 -36 -12 -37 -19 -17 -7 25 -24 30 -24 6 0 -14 -3 -14 -15 -4 -8 7 -15 21
-15 31 0 24 -20 25 -21 2 -1 -10 -1 -21 0 -25 2 -12 -6 -9 -23 8 -9 8 -16 27
-15 42 0 15 3 21 6 15 11 -28 23 -10 23 35 -1 44 -2 46 -16 27 -14 -18 -15
-16 -8 39 5 42 3 57 -4 52 -19 -11 -35 -85 -22 -101 8 -9 7 -14 -5 -19 -12 -4
-15 4 -15 44 0 39 -4 50 -16 50 -13 0 -15 7 -9 42 6 35 5 40 -9 35 -13 -5 -15
-2 -10 21 12 49 -25 1 -42 -54 -13 -45 -13 -45 -8 -9 4 22 7 58 8 80 1 37 4
42 46 62 57 28 61 28 51 0 -5 -13 -5 -30 -1 -37 7 -11 11 -9 18 10 19 53 21
54 15 10 -3 -25 -6 -49 -6 -55 0 -76 19 -72 27 7 4 34 11 57 15 50 8 -14 37
15 43 45 3 12 9 4 17 -24 6 -24 16 -43 22 -43 7 0 8 15 4 43 l-7 42 27 -52
c15 -29 31 -53 36 -53 15 0 10 20 -11 56 l-21 33 43 -17 c24 -9 45 -20 46 -24
2 -5 8 -6 13 -2 5 3 14 -8 20 -25 13 -36 28 -41 30 -8 1 17 3 16 8 -7 3 -16
12 -31 19 -34 15 -5 16 22 2 49 -10 17 -7 19 34 19 37 0 48 5 66 27 19 25 23
26 31 10 15 -26 32 -21 25 7 -6 24 -6 24 24 -4 17 -16 37 -45 45 -65 9 -19 20
-33 25 -30 13 8 -15 75 -39 95 -32 28 -44 59 -29 78 19 24 52 61 56 61 2 1 14
-11 27 -26z m695 2 c0 -12 -14 -15 -72 -16 -40 0 -106 -3 -145 -5 -60 -4 -73
-2 -73 10 0 16 21 19 193 24 82 2 97 0 97 -13z m-562 -8 c7 -8 7 -18 2 -27 -7
-10 -10 -11 -10 -2 0 6 -7 12 -15 12 -16 0 -20 12 -8 23 10 10 19 8 31 -6z
m-453 -23 c21 -17 24 -23 10 -18 -21 8 -62 44 -48 44 4 -1 22 -12 38 -26z
m-435 -4 c-24 -15 -36 -11 -14 4 10 8 21 12 24 10 2 -3 -2 -9 -10 -14z m1423
-103 c-2 -18 -5 -38 -5 -44 -1 -7 -5 -13 -10 -13 -4 0 -8 -4 -8 -10 0 -5 7
-10 15 -10 18 0 21 -46 3 -53 -10 -4 -9 -8 2 -16 13 -10 13 -13 -2 -22 -10 -5
-18 -16 -18 -24 0 -24 -20 -27 -48 -9 -16 10 -22 19 -14 22 23 7 12 22 -18 22
-16 0 -30 5 -30 10 0 6 7 10 15 10 8 0 15 5 15 10 0 6 -24 11 -52 11 l-53 2
68 10 c75 11 89 26 25 28 -24 1 -54 5 -68 9 -22 7 -20 8 15 9 60 2 115 12 115
22 0 5 -39 10 -87 11 l-88 1 82 6 c124 9 125 28 3 34 -58 3 -55 3 23 5 48 1
87 6 87 11 0 5 9 7 19 4 15 -4 18 -11 14 -36z m-2053 -125 c0 -11 -7 -18 -20
-18 -25 0 -27 23 -2 29 9 3 18 5 20 6 1 0 2 -7 2 -17z m262 -39 c-3 -16 -10
-31 -16 -35 -8 -6 -7 -10 1 -16 17 -11 13 -80 -4 -86 -10 -4 -13 9 -13 57 0
74 8 107 25 107 8 0 10 -9 7 -27z m-222 -62 c0 -11 3 -27 6 -36 4 -10 2 -15
-6 -13 -7 2 -15 -3 -17 -9 -3 -7 2 -13 11 -13 9 0 16 -2 16 -4 0 -2 3 -12 6
-20 5 -12 2 -15 -10 -10 -11 4 -16 1 -16 -10 0 -10 7 -16 16 -14 21 4 41 -52
50 -137 6 -59 5 -62 -17 -70 l-24 -8 23 -4 c25 -5 30 -40 10 -62 -10 -11 -10
-14 0 -18 7 -3 12 -23 12 -49 0 -28 -4 -44 -12 -44 -7 0 -23 -3 -35 -6 -22 -6
-23 -4 -23 55 0 61 0 61 -29 61 -19 0 -34 -8 -45 -25 -21 -32 -20 -35 9 -35
14 0 25 -4 25 -10 0 -5 -9 -10 -20 -10 -27 0 -25 -28 3 -33 19 -4 18 -4 -5 -6
-16 0 -28 -5 -28 -10 0 -5 -13 -14 -30 -20 l-30 -10 0 167 c0 143 3 179 22
249 l23 83 43 0 c23 0 42 5 42 10 0 10 -18 14 -58 10 -20 -1 -22 2 -16 27 10
42 12 43 60 43 37 0 44 -3 44 -19z m255 -148 c-8 -8 -15 -22 -15 -32 0 -10 -3
-21 -7 -25 -8 -8 -10 -13 -12 -46 -1 -16 -8 -20 -36 -20 -19 0 -35 -4 -35 -10
0 -10 20 -14 53 -12 10 1 15 -3 12 -8 -3 -6 -15 -10 -26 -10 -27 0 -24 -28 4
-33 18 -4 17 -5 -6 -6 -34 -1 -32 -24 1 -29 32 -5 16 -22 -19 -22 l-31 0 4
123 c2 75 8 130 15 138 8 10 27 13 62 11 45 -3 49 -6 36 -19z m-38 -287 c3 -3
-8 -6 -25 -6 -22 0 -32 -5 -32 -15 0 -13 25 -21 53 -16 4 0 7 -4 7 -10 0 -6
-7 -9 -15 -6 -8 4 -17 2 -20 -3 -4 -6 -15 -10 -26 -10 -15 0 -19 7 -19 38 0
36 1 37 35 36 20 -1 38 -4 42 -8z m576 -92 c43 -8 50 -24 10 -24 -62 0 -70 -8
-80 -73 l-10 -62 -2 48 c-2 67 -17 80 -86 72 -39 -5 -55 -12 -55 -22 0 -49 63
-388 73 -395 6 -4 36 -8 65 -8 64 0 58 -13 117 229 35 143 42 187 33 193 -16
10 7 28 35 28 9 0 17 5 17 10 0 6 81 10 224 10 l223 0 25 -25 c22 -22 28 -23
61 -14 20 5 37 15 37 20 0 11 131 2 140 -10 3 -4 30 -7 60 -8 30 -1 75 -3 100
-6 25 -2 58 -5 73 -6 16 0 26 -5 23 -10 -12 -18 22 -32 63 -25 34 5 41 4 41
-10 0 -20 18 -20 57 -1 28 14 39 13 149 -14 66 -16 137 -36 159 -45 36 -13 37
-15 13 -15 -17 -1 -28 -7 -28 -15 0 -7 -7 -19 -15 -26 -15 -13 -28 -10 -187
36 -12 3 -21 -7 -34 -41 l-17 -46 -13 36 c-17 51 -48 81 -95 93 -52 13 -106 0
-140 -35 -31 -31 -99 -215 -99 -267 0 -66 71 -121 148 -114 26 3 54 8 62 11
10 5 18 0 25 -15 7 -15 25 -26 60 -35 27 -7 53 -9 57 -5 3 4 17 34 31 67 23
59 24 60 59 57 33 -2 37 0 52 39 17 43 10 69 -20 69 -15 0 -18 18 -6 37 6 10
19 9 56 -2 65 -20 63 -20 78 21 l13 36 75 -7 c109 -9 141 -16 133 -28 -3 -6
-1 -7 5 -3 6 3 16 -2 21 -13 6 -10 22 -22 36 -25 22 -6 24 -9 15 -26 -6 -11
-17 -20 -25 -20 -19 0 -19 -9 2 -32 9 -11 11 -18 5 -18 -7 0 -12 -7 -12 -15 0
-8 -4 -15 -10 -15 -5 0 -10 -4 -10 -10 0 -5 6 -10 13 -10 18 0 9 -111 -11
-126 -10 -7 -12 -16 -6 -25 14 -24 10 -44 -11 -49 -11 -3 -26 -18 -33 -33 -13
-27 -13 -27 -50 -11 -20 8 -55 19 -77 24 -243 51 -291 63 -298 76 -12 21 -40
18 -35 -4 4 -15 1 -18 -21 -14 -14 3 -30 11 -34 18 -4 8 -19 14 -33 14 -14 0
-22 4 -19 10 8 13 -68 13 -81 0 -13 -13 -54 -1 -54 16 0 20 -17 17 -42 -6 -19
-17 -20 -25 -12 -57 10 -41 10 -42 162 -59 28 -4 52 -10 52 -13 0 -14 -45 -48
-72 -55 -17 -4 -25 -11 -22 -19 2 -7 -14 -28 -38 -47 -36 -29 -51 -35 -112
-39 -74 -6 -92 -26 -24 -26 43 0 34 -19 -10 -20 -19 0 -26 -5 -24 -16 1 -11
-25 -28 -90 -58 -197 -91 -358 -126 -568 -125 -256 1 -451 55 -700 194 l-35
20 33 0 c34 0 43 14 16 24 -9 3 -33 6 -54 6 -28 0 -39 5 -43 18 -2 11 -17 21
-35 25 -24 5 -29 10 -25 27 4 17 1 20 -25 20 -21 0 -31 6 -35 20 -3 11 -14 20
-25 20 -11 0 -25 6 -31 14 -15 18 1 24 84 30 33 2 71 7 85 10 86 18 80 13 80
62 l0 47 -32 -6 c-18 -3 -76 -13 -128 -22 -52 -8 -104 -17 -115 -19 -11 -2
-28 -7 -37 -11 -13 -5 -16 -2 -12 17 5 20 4 21 -8 7 -7 -8 -46 -21 -88 -28
-41 -7 -96 -19 -121 -26 -25 -7 -58 -11 -73 -8 -15 3 -34 0 -44 -9 -31 -26
-68 -38 -81 -25 -6 6 -11 17 -11 24 0 7 -11 19 -25 25 -18 8 -22 15 -15 23 7
8 4 17 -9 29 -11 10 -17 24 -15 31 3 7 1 16 -5 20 -15 9 -14 48 2 64 10 10 8
16 -10 28 -13 9 -23 20 -23 25 0 5 7 2 16 -7 17 -17 35 -16 41 2 2 6 -10 16
-27 21 -19 7 -30 18 -30 29 0 27 20 45 36 32 8 -7 14 -7 19 1 9 15 -4 31 -22
28 -11 -2 -19 8 -25 30 -7 27 -6 36 8 46 17 13 11 41 -7 31 -5 -4 -9 -1 -9 5
0 6 8 13 18 16 9 3 26 10 37 14 32 13 203 59 285 76 41 8 86 22 100 31 33 22
186 25 199 4 10 -16 31 -6 31 14 0 9 6 12 15 9 9 -4 15 0 15 8 0 18 150 38
173 24 11 -7 24 -6 39 2 13 6 50 13 83 16 142 10 230 18 234 22 6 6 50 5 94
-2z m1701 -186 c40 -11 90 -38 71 -38 -5 0 6 -14 25 -31 30 -28 32 -32 16 -41
-19 -10 -50 7 -40 23 2 5 -14 18 -38 29 -51 25 -109 70 -89 70 7 0 32 -5 55
-12z m-575 -107 c-6 -18 -13 -30 -15 -28 -2 2 1 18 7 36 6 18 13 30 15 28 2
-2 -1 -18 -7 -36z"/>
<path d="M2894 4205 c-4 -9 -2 -21 4 -27 15 -15 44 -1 40 19 -4 23 -36 29 -44
8z"/>
<path d="M3047 4184 c-8 -8 1 -24 14 -24 5 0 9 7 9 15 0 15 -12 20 -23 9z"/>
<path d="M1962 4168 c-14 -14 -16 -34 -4 -42 13 -8 95 19 100 32 2 7 -8 12
-26 12 -17 0 -36 2 -44 5 -7 3 -19 0 -26 -7z"/>
<path d="M3100 4090 c0 -5 7 -10 16 -10 8 0 12 5 9 10 -3 6 -10 10 -16 10 -5
0 -9 -4 -9 -10z"/>
<path d="M3160 4040 c0 -5 9 -10 20 -10 11 0 20 5 20 10 0 6 -9 10 -20 10 -11
0 -20 -4 -20 -10z"/>
<path d="M1750 4000 c0 -5 5 -10 10 -10 6 0 10 5 10 10 0 6 -4 10 -10 10 -5 0
-10 -4 -10 -10z"/>
<path d="M1660 3940 c0 -5 5 -10 10 -10 6 0 10 5 10 10 0 6 -4 10 -10 10 -5 0
-10 -4 -10 -10z"/>
<path d="M3207 3934 c-19 -19 2 -24 104 -24 84 0 110 3 107 13 -5 13 -198 23
-211 11z"/>
<path d="M3120 3920 c0 -5 5 -10 10 -10 6 0 10 5 10 10 0 6 -4 10 -10 10 -5 0
-10 -4 -10 -10z"/>
<path d="M1494 3811 c3 -5 -1 -12 -10 -15 -8 -3 -12 -11 -9 -16 5 -8 11 -7 21
1 16 13 19 39 3 39 -5 0 -8 -4 -5 -9z"/>
<path d="M1570 3791 c0 -12 33 -17 93 -13 73 6 56 22 -23 22 -38 0 -70 -4 -70
-9z"/>
<path d="M3395 3720 c-3 -5 -2 -10 3 -10 5 0 8 -10 8 -22 -1 -28 37 -33 42 -6
6 31 -38 62 -53 38z"/>
<path d="M1650 3710 c0 -5 7 -10 15 -10 8 0 15 5 15 10 0 6 -7 10 -15 10 -8 0
-15 -4 -15 -10z"/>
<path d="M3260 3670 c0 -5 9 -10 20 -10 11 0 20 5 20 10 0 6 -9 10 -20 10 -11
0 -20 -4 -20 -10z"/>
<path d="M3324 3665 c-8 -19 3 -35 26 -35 19 0 30 17 23 38 -6 17 -42 15 -49
-3z"/>
<path d="M1523 3570 c-24 -10 -53 -58 -53 -88 0 -32 45 -72 81 -72 23 0 30 4
26 14 -3 8 -1 17 6 20 9 3 8 8 -3 15 -13 9 -13 11 1 11 16 0 29 19 29 41 0 8
-57 70 -63 68 -1 0 -12 -4 -24 -9z"/>
<path d="M3204 3572 c-39 -8 -35 -21 7 -26 100 -12 428 -16 435 -5 3 6 2 14
-2 19 -9 8 -402 18 -440 12z"/>
<path d="M3420 3360 c0 -5 14 -10 30 -10 17 0 30 5 30 10 0 6 -13 10 -30 10
-16 0 -30 -4 -30 -10z"/>
<path d="M1537 3354 c-2 -2 -104 -12 -130 -14 -5 0 -5 -4 -2 -10 3 -5 38 -10
76 -10 68 0 71 -1 105 -37 20 -21 43 -50 52 -65 9 -15 22 -28 29 -28 7 0 10
-7 7 -15 -5 -12 4 -15 45 -15 28 0 51 5 51 10 0 17 -31 62 -70 102 -35 34 -36
37 -16 42 12 3 47 6 79 6 32 0 57 4 57 10 0 6 -6 12 -12 15 -13 4 -267 13
-271 9z"/>
<path d="M3697 3344 c-11 -11 3 -24 18 -18 8 4 12 10 9 15 -6 11 -18 12 -27 3z"/>
<path d="M3368 3333 c-10 -2 -18 -8 -18 -13 0 -4 -11 -18 -25 -31 -32 -31 -31
-37 3 -42 25 -4 25 -4 -5 -6 -18 0 -33 -5 -33 -11 0 -6 32 -10 75 -10 71 0
102 13 53 23 -17 3 -14 5 10 6 34 1 39 10 22 42 -9 16 -7 19 10 19 13 0 20 5
18 13 -5 12 -78 19 -110 10z"/>
<path d="M1280 3285 c-10 -12 -10 -19 -2 -27 16 -16 42 -2 42 22 0 24 -22 26
-40 5z"/>
<path d="M3287 3203 c-4 -3 -4 -10 -1 -14 7 -13 84 -11 84 1 0 7 6 7 20 0 21
-11 70 -4 70 10 0 10 -164 13 -173 3z"/>
<path d="M3685 3196 c-35 -25 6 -83 43 -60 9 6 17 21 17 34 0 28 -36 44 -60
26z"/>
<path d="M1280 3135 c0 -13 33 -15 235 -15 245 0 240 1 236 -42 -2 -12 5 -18
18 -18 17 0 20 5 17 33 -2 17 -4 38 -5 45 -1 9 -58 12 -251 12 -216 0 -250 -2
-250 -15z"/>
<path d="M1853 3124 c-9 -23 13 -40 32 -24 12 10 13 16 4 26 -15 18 -28 18
-36 -2z"/>
<path d="M3233 3134 c-7 -3 -13 -12 -13 -20 0 -13 32 -15 224 -12 208 3 250 7
233 25 -9 8 -427 15 -444 7z"/>
<path d="M1824 3081 c4 -5 0 -12 -6 -14 -8 -3 -6 -6 5 -6 9 -1 17 6 17 14 0 8
-5 15 -11 15 -5 0 -8 -4 -5 -9z"/>
<path d="M1412 3063 c4 -22 43 -25 43 -3 0 8 -11 16 -23 18 -19 3 -23 0 -20
-15z"/>
<path d="M1404 2985 c-5 -11 -21 -15 -60 -15 -30 0 -54 -4 -54 -10 0 -6 47
-10 120 -10 73 0 120 4 120 10 0 6 -18 10 -39 10 -25 0 -41 5 -45 15 -3 8 -12
15 -21 15 -9 0 -18 -7 -21 -15z"/>
<path d="M1717 2984 c-16 -16 -7 -44 14 -44 15 0 20 5 17 22 -3 22 -19 33 -31
22z"/>
<path d="M3370 2976 c0 -11 160 -14 393 -6 5 0 5 4 2 10 -4 6 -82 10 -201 10
-153 -1 -194 -4 -194 -14z"/>
<path d="M1687 2923 c-12 -11 -7 -33 8 -39 20 -8 45 13 38 32 -5 14 -34 19
-46 7z"/>
<path d="M1415 2861 c-7 -12 12 -24 25 -16 11 7 4 25 -10 25 -5 0 -11 -4 -15
-9z"/>
<path d="M1797 2863 c-14 -13 -6 -33 13 -33 13 0 20 7 20 20 0 19 -20 27 -33
13z"/>
<path d="M3705 2710 c-11 -17 18 -42 39 -34 9 4 16 14 14 23 -4 19 -43 27 -53
11z"/>
<path d="M3780 2700 c0 -5 5 -10 10 -10 6 0 10 5 10 10 0 6 -4 10 -10 10 -5 0
-10 -4 -10 -10z"/>
<path d="M1310 2645 c0 -13 34 -15 250 -15 216 0 250 2 250 15 0 13 -34 15
-250 15 -216 0 -250 -2 -250 -15z"/>
<path d="M3650 2610 c0 -5 5 -10 10 -10 6 0 10 5 10 10 0 6 -4 10 -10 10 -5 0
-10 -4 -10 -10z"/>
<path d="M3711 2601 c-15 -10 -8 -41 9 -41 15 0 25 29 14 40 -5 5 -15 5 -23 1z"/>
<path d="M1440 2580 c0 -5 7 -10 15 -10 8 0 15 5 15 10 0 6 -7 10 -15 10 -8 0
-15 -4 -15 -10z"/>
<path d="M1850 2545 c0 -11 9 -14 32 -11 44 5 47 22 3 24 -25 1 -35 -3 -35
-13z"/>
<path d="M3735 2520 c-3 -5 -1 -10 4 -10 6 0 11 5 11 10 0 6 -2 10 -4 10 -3 0
-8 -4 -11 -10z"/>
<path d="M3692 2458 c7 -19 38 -22 38 -4 0 10 -9 16 -21 16 -12 0 -19 -5 -17
-12z"/>
<path d="M1827 2353 c-17 -17 -2 -23 58 -23 62 0 84 11 49 24 -21 8 -99 8
-107 -1z"/>
<path d="M3753 1998 c2 -7 10 -13 17 -13 7 0 15 6 18 13 2 7 -5 12 -18 12 -13
0 -20 -5 -17 -12z"/>
<path d="M2315 4090 c-3 -5 1 -10 9 -10 9 0 16 5 16 10 0 6 -4 10 -9 10 -6 0
-13 -4 -16 -10z"/>
<path d="M2316 4034 c-44 -24 -95 -52 -113 -61 -18 -8 -33 -20 -33 -25 0 -13
34 -1 97 32 31 16 49 22 46 14 -3 -8 -2 -14 1 -14 10 0 150 63 160 72 14 12
-1 22 -16 11 -7 -6 -35 -17 -63 -26 -28 -9 -42 -11 -31 -4 94 60 57 62 -48 1z"/>
<path d="M2260 4055 c-14 -8 -35 -20 -47 -26 -21 -11 -31 -29 -17 -29 9 0 114
61 114 66 0 9 -26 3 -50 -11z"/>
<path d="M2359 3852 c-70 -46 -189 -136 -189 -144 0 -15 15 -8 75 38 33 25 84
61 113 80 28 18 52 36 52 39 0 10 -25 3 -51 -13z"/>
<path d="M2364 3816 c-86 -49 -172 -123 -119 -102 24 9 153 95 160 107 13 20
-1 18 -41 -5z"/>
<path d="M2060 3775 c-17 -21 -8 -28 15 -11 11 8 14 15 8 19 -6 4 -16 0 -23
-8z"/>
<path d="M2094 3741 c-78 -50 -154 -119 -154 -138 0 -10 23 5 63 39 50 43 103
86 156 125 2 2 2 5 -1 8 -2 3 -31 -12 -64 -34z"/>
<path d="M1973 3709 c-18 -12 -30 -25 -27 -30 6 -11 61 19 68 38 7 18 -4 16
-41 -8z"/>
<path d="M2076 3685 c-39 -23 -66 -55 -48 -55 14 0 92 59 92 70 0 13 2 13 -44
-15z"/>
<path d="M2310 3700 c0 -5 5 -10 10 -10 6 0 10 5 10 10 0 6 -4 10 -10 10 -5 0
-10 -4 -10 -10z"/>
<path d="M2200 3645 c-122 -87 -161 -119 -171 -138 -18 -31 -3 -30 32 4 19 17
45 39 59 48 83 53 160 115 160 127 0 8 -1 14 -2 14 -2 0 -37 -25 -78 -55z"/>
<path d="M2780 4093 c0 -7 -6 -10 -14 -7 -12 5 -12 0 -1 -33 13 -37 33 -49 27
-15 -3 14 -1 13 12 -3 15 -20 15 -20 16 1 0 12 -9 32 -20 45 -10 13 -19 19
-20 12z"/>
<path d="M2370 3441 c0 -6 5 -13 10 -16 6 -3 10 1 10 9 0 9 -4 16 -10 16 -5 0
-10 -4 -10 -9z"/>
<path d="M2520 3432 c0 -11 78 -28 87 -18 11 10 -4 17 -46 23 -25 4 -41 2 -41
-5z"/>
<path d="M2450 2530 c0 -5 5 -10 10 -10 6 0 10 5 10 10 0 6 -4 10 -10 10 -5 0
-10 -4 -10 -10z"/>
<path d="M2320 2515 c0 -3 7 -35 16 -70 16 -62 34 -87 34 -46 0 28 -32 121
-42 121 -4 0 -8 -2 -8 -5z"/>
<path d="M2710 2490 c0 -14 15 -76 26 -109 3 -10 8 -11 15 -4 7 7 7 22 0 50
-12 44 -40 88 -41 63z"/>
<path d="M2192 2438 c-9 -35 -4 -65 9 -51 4 4 11 25 14 46 9 47 -11 51 -23 5z"/>
<path d="M2455 2403 c8 -62 12 -73 25 -73 13 0 13 49 -1 89 -17 48 -31 38 -24
-16z"/>
<path d="M2265 2371 c-3 -5 -1 -12 5 -16 5 -3 10 1 10 9 0 18 -6 21 -15 7z"/>
<path d="M2290 2334 c-15 -38 -13 -84 4 -84 13 0 26 41 26 86 0 32 -18 31 -30
-2z"/>
<path d="M2420 2161 c0 -5 7 -11 14 -14 10 -4 13 -1 9 9 -6 15 -23 19 -23 5z"/>
<path d="M1400 2316 c0 -11 10 -16 31 -16 38 0 35 24 -4 28 -19 2 -27 -1 -27
-12z"/>
<path d="M1403 2233 c-24 -9 -13 -23 17 -23 32 0 40 14 14 24 -9 3 -16 6 -17
5 -1 0 -8 -3 -14 -6z"/>
<path d="M1380 2190 c0 -5 16 -10 35 -10 19 0 35 5 35 10 0 6 -16 10 -35 10
-19 0 -35 -4 -35 -10z"/>
<path d="M1390 2151 c0 -17 21 -23 56 -17 49 10 42 26 -11 26 -25 0 -45 -4
-45 -9z"/>
<path d="M1437 2122 c-19 -4 -18 -28 1 -26 7 1 21 2 32 3 11 0 20 5 20 10 0
11 -29 18 -53 13z"/>
<path d="M1413 2082 c-60 -4 -54 -22 7 -22 28 0 50 4 50 9 0 14 -10 16 -57 13z"/>
<path d="M1377 2044 c-17 -17 -4 -24 44 -24 36 0 49 4 47 13 -5 13 -79 22 -91
11z"/>
<path d="M1372 1998 c5 -15 97 -18 101 -3 1 6 -22 11 -52 13 -40 2 -52 0 -49
-10z"/>
<path d="M1640 2120 c0 -5 11 -10 25 -10 14 0 25 5 25 10 0 6 -11 10 -25 10
-14 0 -25 -4 -25 -10z"/>
<path d="M1647 2094 c-10 -11 3 -24 23 -24 10 0 20 7 24 15 4 11 -1 15 -18 15
-12 0 -26 -3 -29 -6z"/>
<path d="M2429 1788 c-1 -5 -2 -12 -3 -18 0 -5 -11 -16 -23 -25 -31 -21 -50
-85 -63 -202 -9 -87 -9 -106 4 -132 43 -82 161 -97 226 -29 21 22 22 22 16 2
-9 -28 27 -46 84 -42 37 3 45 7 51 28 5 18 7 20 8 6 2 -29 31 -45 84 -46 46 0
47 1 47 31 l0 31 25 -30 c34 -40 76 -56 132 -49 38 4 54 12 80 41 27 29 33 44
33 80 0 39 -7 53 -45 100 -45 55 -58 79 -31 57 8 -6 36 -14 64 -18 47 -5 49
-4 56 22 16 62 -32 128 -101 141 -19 4 -40 15 -46 25 -14 23 -32 25 -23 4 3
-8 -2 -21 -11 -27 -8 -7 -31 -27 -49 -44 -19 -18 -34 -28 -34 -24 0 17 -55 73
-85 86 -16 7 -24 13 -17 14 21 0 13 20 -9 20 -15 0 -19 -5 -15 -15 5 -13 -5
-15 -62 -13 l-67 3 -11 -55 c-9 -46 -11 -51 -17 -30 -3 14 -22 41 -42 60 -31
30 -41 34 -87 34 -29 0 -56 4 -60 10 -4 6 -8 8 -9 4z m56 -228 l-14 -95 5 80
c5 77 12 120 19 113 2 -2 -3 -46 -10 -98z m288 65 c-3 -9 -8 -14 -10 -11 -3 3
-2 9 2 15 9 16 15 13 8 -4z m178 -118 c21 -25 39 -49 39 -54 0 -4 -4 -3 -8 3
-4 6 -30 15 -58 19 l-52 7 -10 -39 -10 -38 -1 56 c-1 44 3 60 19 74 11 10 23
27 27 39 l7 21 4 -22 c2 -12 21 -42 43 -66z"/>
<path d="M2006 1762 c-3 -6 -1 -14 5 -17 15 -10 25 3 12 16 -7 7 -13 7 -17 1z"/>
<path d="M1935 1735 c-5 -2 -31 -6 -56 -10 l-46 -6 -28 -167 c-15 -92 -31
-171 -36 -177 -6 -5 -9 -4 -9 4 0 13 -39 10 -91 -5 -13 -4 -17 16 -28 137 -8
91 -17 147 -26 155 -11 11 -23 12 -64 2 -30 -7 -51 -17 -51 -25 0 -16 -17 -17
-22 -2 -5 15 -208 -40 -215 -58 -3 -8 7 -98 22 -201 33 -221 36 -226 109 -205
l49 15 -7 56 c-4 31 -9 66 -12 78 -5 18 0 23 25 29 28 6 31 10 31 44 0 51 -25
84 -57 76 -20 -5 -24 -2 -21 12 2 11 20 22 51 31 27 8 50 12 53 10 2 -2 10
-66 17 -141 7 -76 19 -143 25 -149 12 -12 74 -3 197 27 28 7 71 16 98 19 44 7
47 9 47 37 0 36 22 39 53 5 18 -20 29 -23 65 -19 24 3 46 11 49 19 6 16 -75
371 -91 397 -11 17 -13 18 -31 12z"/>
<path d="M1990 1710 c0 -5 7 -10 16 -10 8 0 12 5 9 10 -3 6 -10 10 -16 10 -5
0 -9 -4 -9 -10z"/>
<path d="M4016 1191 c-4 -7 -5 -15 -2 -18 9 -9 19 4 14 18 -4 11 -6 11 -12 0z"/>
<path d="M3130 1159 c0 -5 5 -7 10 -4 6 3 10 8 10 11 0 2 -4 4 -10 4 -5 0 -10
-5 -10 -11z"/>
<path d="M2722 1150 c-12 -5 -25 -17 -28 -25 -6 -14 -9 -13 -21 4 -12 18 -24
21 -103 20 -50 0 -93 -5 -96 -10 -4 -7 -10 -7 -17 0 -7 5 -40 9 -75 10 l-62 0
0 -75 0 -74 -30 0 -30 0 0 75 0 75 -35 0 -35 0 -1 -72 -1 -73 -16 70 c-17 70
-17 70 -54 73 -40 3 -38 7 -59 -93 -16 -78 -25 -86 -39 -38 -11 35 -10 45 8
80 12 22 18 43 15 47 -11 11 -71 6 -76 -6 -4 -10 -6 -10 -6 0 -1 7 -15 12 -36
12 l-36 0 3 -102 3 -103 104 -3 c73 -2 107 1 112 10 6 9 11 9 22 0 10 -8 63
-12 171 -11 l156 1 0 51 c0 60 17 53 22 -8 l3 -40 68 -2 67 -3 0 35 c0 26 4
35 17 35 9 0 25 7 35 17 17 15 18 14 18 -19 0 -62 65 -96 113 -58 22 18 27 19
27 6 0 -11 9 -16 30 -16 24 0 30 4 31 23 l0 22 9 -22 c7 -18 17 -23 45 -23 25
0 35 4 35 16 0 13 5 12 27 -6 19 -15 35 -19 53 -15 45 12 50 23 49 106 -1 72
-3 81 -26 99 -31 24 -51 25 -80 5 -14 -10 -24 -12 -28 -5 -3 5 -19 10 -36 10
-21 0 -29 -5 -29 -17 -1 -17 -1 -17 -11 0 -6 10 -22 17 -39 17 -24 0 -30 -4
-30 -22 l0 -23 -18 22 c-20 26 -58 36 -90 23z"/>
<path d="M3953 1115 c-7 -20 1 -28 33 -30 28 -1 49 18 39 35 -10 16 -65 12
-72 -5z"/>
<path d="M1080 1100 c0 -13 5 -20 13 -17 6 2 12 10 12 17 0 7 -6 15 -12 18 -8
2 -13 -5 -13 -18z"/>
<path d="M2227 903 c-11 -10 13 -33 34 -33 12 0 19 7 19 20 0 14 -7 20 -23 20
-13 0 -27 -3 -30 -7z"/>
<path d="M2532 882 c-17 -12 -4 -44 17 -40 17 4 22 39 6 45 -5 1 -16 -1 -23
-5z"/>
</g>
</svg>
